<?xml version="1.0" standalone="no"?>
<!DOCTYPE svg PUBLIC "-//W3C//DTD SVG 20010904//EN"
 "http://www.w3.org/TR/2001/REC-SVG-20010904/DTD/svg10.dtd">
<svg version="1.0" xmlns="http://www.w3.org/2000/svg"
 width="1084.000000pt" height="226.000000pt" viewBox="0 0 1084.000000 226.000000"
 preserveAspectRatio="xMidYMid meet">

<g transform="translate(0.000000,226.000000) scale(0.100000,-0.100000)"
fill="#000000" stroke="none">
<path d="M940 2189 c-256 -43 -524 -207 -604 -371 -70 -144 -42 -291 63 -335
55 -23 145 -13 218 26 58 31 133 94 133 112 0 24 -32 17 -75 -15 -47 -36 -69
-46 -115 -48 -55 -3 -78 3 -104 28 -22 23 -26 36 -26 83 0 151 119 301 315
396 129 63 197 79 340 79 105 1 126 -2 170 -22 91 -42 125 -89 125 -174 0
-148 -140 -282 -306 -296 -95 -7 -100 -36 -8 -53 93 -18 134 -67 134 -164 0
-145 -122 -286 -266 -308 -58 -9 -103 7 -146 54 -38 41 -60 47 -66 15 -6 -31
26 -64 95 -98 63 -31 74 -33 163 -32 154 1 263 56 324 164 28 49 31 64 31 135
0 100 -25 156 -90 205 -25 19 -42 37 -38 40 5 4 28 12 53 19 160 46 264 153
264 271 0 77 -18 123 -70 174 -103 104 -306 149 -514 115z"/>
<path d="M4910 2194 c-304 -56 -541 -200 -637 -389 -55 -107 -39 -247 35 -303
31 -24 44 -27 111 -27 67 0 83 4 137 33 72 39 134 93 134 116 0 25 -23 19 -71
-18 -83 -64 -178 -69 -225 -13 -23 28 -26 38 -22 92 10 150 144 305 342 395
107 49 180 64 311 64 105 1 126 -2 172 -23 68 -30 119 -86 128 -139 24 -145
-129 -313 -298 -329 -81 -7 -100 -17 -73 -38 11 -8 33 -15 48 -15 63 0 121
-51 137 -119 32 -145 -89 -319 -245 -351 -70 -15 -112 -2 -164 51 -41 41 -57
48 -66 25 -12 -31 25 -74 88 -105 190 -93 453 -8 512 167 40 115 7 237 -81
306 -29 23 -41 37 -32 40 8 2 32 10 54 17 125 38 230 126 255 214 38 136 -57
271 -230 326 -64 21 -258 34 -320 23z"/>
<path d="M8198 2176 c-219 -77 -399 -246 -691 -646 -92 -126 -122 -164 -109
-135 23 49 95 277 127 403 52 201 81 268 137 323 26 25 45 49 41 52 -13 14
-40 6 -88 -27 -96 -65 -177 -159 -444 -521 -213 -288 -288 -364 -431 -433 -68
-33 -83 -37 -157 -37 -88 0 -115 11 -157 69 -18 24 -21 41 -20 124 1 123 25
189 96 267 67 74 123 106 198 112 107 10 160 -31 160 -124 0 -65 -17 -108 -59
-147 -67 -63 -19 -78 52 -16 145 128 124 351 -37 375 -57 9 -156 -16 -225 -58
-81 -49 -184 -165 -231 -261 -93 -190 -89 -326 12 -423 90 -86 229 -85 376 4
127 78 214 172 417 453 105 144 198 272 208 284 17 20 17 20 1 -19 -33 -81
-47 -124 -100 -308 -58 -204 -106 -318 -148 -356 -28 -26 -33 -45 -15 -57 18
-11 145 84 224 168 70 74 184 221 328 424 66 93 174 213 219 245 22 16 11 -1
-36 -57 -148 -176 -269 -379 -320 -542 -42 -135 -30 -209 40 -238 62 -26 131
3 227 95 l47 45 0 -45 c0 -31 7 -57 23 -80 46 -69 138 -46 255 64 l52 50 0
-52 c0 -68 22 -92 86 -89 91 3 201 107 346 329 56 85 97 139 107 138 9 0 34
-3 56 -7 l40 -8 -91 -95 c-99 -103 -142 -173 -151 -249 -5 -45 -3 -51 25 -79
49 -49 111 -37 203 40 l49 41 0 -35 c0 -20 9 -46 21 -61 39 -50 159 -29 241
43 l36 31 6 -23 c3 -13 15 -36 27 -50 42 -54 130 -30 232 63 30 27 58 50 61
50 3 0 6 -16 6 -36 0 -36 15 -73 34 -86 36 -24 122 9 192 74 l47 43 -37 -58
c-43 -66 -40 -70 50 -65 l59 3 40 62 c22 35 74 115 115 179 112 174 220 284
279 284 14 0 21 -6 21 -19 0 -10 -63 -124 -140 -254 -77 -129 -140 -240 -140
-247 0 -7 21 -10 63 -8 l62 3 117 175 c168 250 202 294 255 329 52 35 71 38
80 15 8 -21 -14 -65 -98 -196 -122 -190 -143 -255 -94 -303 31 -32 88 -33 153
-3 79 36 307 286 288 317 -10 16 -32 2 -59 -37 -70 -106 -192 -222 -233 -222
-46 0 -32 35 88 220 112 172 131 238 83 285 -48 49 -151 29 -231 -45 -50 -46
-67 -51 -58 -15 8 33 -42 85 -83 85 -34 0 -115 -39 -161 -76 l-33 -27 10 26
c18 47 6 57 -69 57 -73 0 -84 -6 -96 -54 -19 -76 -223 -371 -301 -435 -21 -17
-46 -31 -57 -31 -16 0 -18 5 -13 41 3 23 20 64 38 93 47 74 160 261 198 329
l32 57 -75 0 c-42 0 -76 -3 -76 -7 0 -5 -5 -15 -10 -23 -7 -12 -13 -11 -34 9
-40 38 -100 32 -203 -19 -140 -69 -276 -222 -324 -362 -19 -58 -46 -88 -104
-119 -36 -19 -46 -21 -59 -10 -9 8 -16 24 -16 36 0 12 48 96 106 186 125 192
164 262 164 295 0 22 -4 24 -44 24 -88 0 -102 -7 -123 -64 -28 -76 -190 -323
-252 -384 -65 -65 -94 -68 -99 -10 -4 52 49 147 190 335 37 50 68 97 68 103 0
8 -12 10 -37 7 -132 -19 -143 -20 -167 -3 -14 9 -32 16 -40 16 -7 0 -44 -53
-80 -117 -109 -192 -292 -413 -342 -413 -35 0 -9 83 54 177 21 32 74 119 117
193 42 74 79 138 82 143 2 4 -29 7 -70 7 -69 0 -74 -2 -85 -26 l-12 -25 -23
27 c-44 50 -140 31 -268 -52 -78 -52 -143 -118 -203 -211 -123 -189 -257 -234
-226 -76 15 78 37 130 122 288 102 189 174 295 291 426 89 100 117 122 201
154 32 13 37 17 26 30 -17 21 -44 19 -122 -9z m151 -575 c18 -33 -15 -113 -98
-238 -122 -184 -223 -267 -269 -221 -31 31 7 130 103 263 122 171 234 254 264
196z m1302 -5 c15 -33 -20 -116 -104 -241 -124 -185 -218 -260 -265 -213 -31
31 8 131 105 266 120 169 235 252 264 188z"/>
<path d="M3511 2081 c-7 -5 -23 -33 -35 -63 -13 -31 -47 -92 -76 -137 l-54
-81 -63 0 c-61 0 -63 -1 -63 -25 0 -23 4 -25 45 -25 25 0 45 -2 45 -4 0 -2
-53 -87 -118 -188 -65 -100 -133 -208 -150 -239 -35 -61 -155 -183 -175 -176
-20 7 -12 72 16 129 14 29 58 102 97 162 82 125 110 178 110 204 0 16 -7 18
-62 14 -35 -2 -68 -5 -75 -7 -6 -2 -30 -43 -52 -90 -42 -89 -85 -157 -177
-280 -78 -105 -166 -168 -180 -131 -11 28 3 58 92 196 106 166 144 240 144
280 l0 30 -69 0 -68 0 -19 -57 c-46 -139 -286 -463 -343 -463 -42 0 -24 63 57
188 40 63 192 322 192 328 0 2 -31 4 -69 4 -60 0 -70 -3 -84 -22 l-15 -23 -26
24 c-36 34 -98 31 -179 -7 -122 -58 -216 -144 -302 -277 -41 -64 -143 -157
-209 -190 -56 -28 -107 -32 -126 -10 -17 20 -8 99 16 150 18 37 24 41 89 57
205 53 358 197 301 283 -23 35 -57 40 -133 21 -189 -46 -382 -238 -423 -420
-14 -63 1 -116 41 -150 26 -22 40 -26 92 -26 75 0 120 20 201 87 102 84 96 82
96 34 0 -52 22 -106 48 -120 54 -29 126 -2 228 85 l54 46 0 -36 c0 -38 14 -75
34 -88 35 -24 122 9 190 73 l46 42 0 -32 c0 -42 47 -91 87 -91 49 1 113 38
177 103 l62 63 -4 -58 c-6 -74 12 -98 70 -98 50 0 92 21 148 76 l45 43 1 -41
c0 -56 37 -88 100 -88 50 0 98 21 167 74 47 36 47 36 47 11 0 -105 114 -126
226 -40 18 14 36 25 39 25 4 0 -8 -26 -26 -57 -127 -226 -276 -363 -392 -363
-59 0 -75 19 -58 65 31 87 -84 119 -120 34 -29 -71 41 -129 155 -129 225 0
401 120 552 375 64 107 109 181 268 431 95 150 97 174 14 174 -76 0 -95 -8
-101 -38 -7 -32 -133 -255 -182 -322 -64 -87 -166 -170 -210 -170 -40 0 2 99
124 288 139 217 144 250 35 235 l-58 -8 -36 -70 c-20 -39 -63 -110 -96 -160
-34 -49 -73 -112 -89 -140 -51 -91 -115 -145 -170 -145 -56 0 -43 63 47 225
34 61 104 174 156 253 l95 142 59 0 c55 0 58 1 58 24 0 22 -5 25 -40 28 l-40
3 56 84 c61 91 106 180 98 193 -7 11 -135 10 -153 -1z m-1681 -481 c0 -35 -26
-75 -86 -129 -58 -53 -120 -91 -149 -91 -24 0 55 109 132 181 66 61 103 75
103 39z m478 8 c7 -7 12 -21 12 -32 0 -31 -50 -130 -110 -221 -106 -159 -181
-230 -236 -223 -64 7 -57 68 24 198 74 120 155 217 216 258 51 34 75 39 94 20z"/>
<path d="M1168 1996 c-81 -33 -180 -107 -240 -179 -53 -63 -133 -184 -248
-372 -85 -140 -199 -263 -282 -304 -49 -25 -74 -31 -124 -31 -105 0 -141 26
-103 73 27 35 25 91 -3 111 -35 25 -67 19 -104 -18 -61 -61 -41 -143 45 -189
90 -48 216 -44 372 13 185 67 321 200 458 448 110 199 216 339 304 403 37 27
65 54 62 59 -11 17 -78 10 -137 -14z"/>
<path d="M5110 1997 c-159 -66 -250 -165 -445 -484 -185 -301 -300 -402 -456
-403 -51 0 -72 5 -90 19 l-24 19 23 40 c28 51 28 67 -3 97 -34 35 -70 32 -111
-9 -46 -46 -48 -100 -4 -150 71 -80 220 -94 395 -35 205 68 346 202 490 464
61 110 174 275 229 333 28 30 70 65 94 79 23 14 41 30 39 37 -7 20 -80 17
-137 -7z"/>
<path d="M9254 1906 c-79 -79 -8 -157 75 -82 35 32 44 64 26 92 -23 35 -60 31
-101 -10z"/>
<path d="M5586 1651 c-37 -6 -42 -11 -76 -76 -19 -38 -66 -115 -102 -170 -93
-141 -121 -200 -122 -258 -1 -41 3 -52 27 -73 17 -15 41 -24 60 -24 32 0 110
34 157 67 22 16 21 12 -14 -52 -59 -107 -118 -185 -188 -250 -78 -73 -139
-105 -200 -105 -60 0 -76 18 -59 65 25 70 -47 117 -96 63 -30 -34 -34 -55 -19
-92 40 -96 273 -86 443 17 108 66 163 131 297 352 72 118 152 247 242 388 35
55 57 99 58 120 1 31 0 32 -44 35 -71 5 -110 -5 -110 -30 0 -45 -177 -332
-252 -408 -73 -74 -158 -113 -158 -72 0 29 62 150 130 252 90 137 134 228 119
246 -12 15 -27 15 -93 5z"/>
<path d="M272 818 c-17 -29 -28 -56 -26 -60 3 -4 588 -8 1300 -8 l1294 0 35
55 c19 30 35 57 35 60 0 3 -587 5 -1304 5 l-1304 0 -30 -52z"/>
<path d="M3781 818 c-16 -29 -27 -56 -22 -61 4 -4 245 -6 537 -5 l529 3 27 50
c15 28 28 53 28 58 0 4 -240 7 -534 7 l-534 0 -31 -52z"/>
<path d="M5887 816 c-20 -30 -33 -57 -30 -60 4 -3 1017 -6 2253 -6 2128 0
2248 1 2261 17 8 10 27 37 42 61 l27 42 -2258 0 -2259 0 -36 -54z"/>
<path d="M1692 598 c-42 -14 -89 -68 -97 -112 -10 -52 17 -95 116 -186 71 -66
89 -87 89 -110 0 -15 -7 -33 -15 -40 -25 -21 -105 -24 -155 -6 -25 8 -48 12
-52 8 -4 -4 -4 -26 -1 -49 6 -47 11 -50 118 -59 129 -11 220 37 232 123 8 64
-11 97 -106 180 -47 41 -90 82 -94 90 -15 25 1 60 33 73 30 12 104 9 143 -5
15 -6 17 -1 17 38 0 25 -5 49 -11 53 -20 12 -183 14 -217 2z"/>
<path d="M6997 599 c-87 -21 -168 -86 -203 -166 -22 -49 -24 -175 -5 -223 48
-115 168 -179 316 -167 137 11 214 56 262 155 24 49 28 69 28 142 0 75 -3 91
-28 133 -65 110 -217 162 -370 126z m177 -93 c18 -8 46 -31 62 -51 55 -73 41
-222 -26 -279 -90 -75 -236 -52 -287 44 -50 95 -13 231 76 277 51 27 124 30
175 9z"/>
<path d="M3330 340 c-74 -143 -136 -267 -138 -275 -3 -12 9 -15 61 -15 l64 0
44 95 43 96 109 -3 110 -3 31 -90 31 -90 63 -3 c37 -2 62 1 62 7 0 6 -38 113
-84 238 -46 125 -89 245 -96 266 l-12 37 -76 0 -77 -1 -135 -259z m260 -2 c0
-4 -31 -8 -70 -8 -38 0 -70 2 -70 5 0 3 19 43 42 90 l43 85 27 -82 c16 -45 28
-86 28 -90z"/>
<path d="M5127 423 c-4 -98 -10 -222 -13 -276 l-7 -97 191 0 192 0 0 23 c0 12
3 32 6 45 l6 22 -132 0 -133 0 7 108 c3 59 9 162 12 230 l7 122 -65 0 -65 0
-6 -177z"/>
<path d="M8736 588 c-3 -7 -7 -103 -10 -213 -3 -110 -9 -228 -12 -263 l-7 -63
59 3 59 3 6 155 c4 85 7 175 8 200 l1 45 41 -65 c23 -36 80 -127 127 -202 l87
-138 72 0 72 0 5 43 c3 23 8 114 11 202 3 88 8 193 12 233 l6 72 -62 0 -61 0
-1 -107 c-1 -60 -4 -150 -8 -202 l-6 -94 -102 164 c-55 90 -111 181 -123 202
l-22 37 -74 0 c-51 0 -76 -4 -78 -12z"/>
</g>
</svg>
